<?xml version="1.0" encoding="utf-8"?>
<!-- Generator: Adobe Illustrator 16.0.0, SVG Export Plug-In . SVG Version: 6.00 Build 0)  -->
<!DOCTYPE svg PUBLIC "-//W3C//DTD SVG 1.1//EN" "http://www.w3.org/Graphics/SVG/1.1/DTD/svg11.dtd">
<svg version="1.1" id="Layer_1" xmlns="http://www.w3.org/2000/svg" xmlns:xlink="http://www.w3.org/1999/xlink" x="0px" y="0px"
	 width="200px" height="52px" viewBox="0 0 200 52" enable-background="new 0 0 200 52" xml:space="preserve">
<g>
	<path fill="#FFFFFF" d="M179.38,23.93h7.87v-1.21h-6.561V12.33h-1.31V23.93z M168.471,19.67l2.67-5.9l2.639,5.9H168.471z
		 M165.23,23.93h1.35l1.38-3.07h6.34l1.36,3.07h1.42l-5.311-11.68h-1.229L165.23,23.93z M159.27,24.12c2.11,0,3.44-0.81,4.66-2.03
		l-0.869-0.85c-1.11,1.06-2.16,1.67-3.761,1.67c-2.56,0-4.51-2.1-4.51-4.78v-0.04c0-2.66,1.931-4.75,4.51-4.75
		c1.58,0,2.681,0.66,3.66,1.59l0.899-0.96c-1.159-1.1-2.43-1.84-4.539-1.84c-3.43,0-5.891,2.72-5.891,6v0.03
		C153.43,21.49,155.91,24.12,159.27,24.12z M149.21,23.93h1.319v-11.6h-1.319V23.93z M140.12,13.54c2.95,0,4.83,2.02,4.83,4.59v0.03
		c0,2.57-1.88,4.56-4.83,4.56h-2.729v-9.18H140.12z M136.08,23.93h4.04c3.67,0,6.2-2.54,6.2-5.8v-0.04c0-3.26-2.53-5.76-6.2-5.76
		h-4.04V23.93z M124.93,23.93h8.5v-1.2h-7.189v-4.06h6.359v-1.19h-6.359v-3.96h7.109v-1.19h-8.42V23.93z M110.48,23.93h1.279v-9.38
		l4.24,6.19h0.07l4.25-6.21v9.4h1.31v-11.6h-1.33l-4.25,6.33l-4.239-6.33h-1.33V23.93z"/>
	<path fill="#FFFFFF" d="M194.76,39.66h1.33V29.28H200v-1.21h-9.15v1.21h3.91V39.66L194.76,39.66z M181.08,33.98v-4.7h3.59
		c1.88,0,2.98,0.86,2.98,2.28V31.6c0,1.49-1.25,2.381-3,2.381H181.08z M179.76,39.66h1.32v-4.5h3.32l3.379,4.5h1.621l-3.58-4.73
		c1.83-0.34,3.16-1.46,3.16-3.38v-0.04c0-0.91-0.33-1.72-0.9-2.279c-0.73-0.73-1.88-1.16-3.311-1.16h-5.01V39.66L179.76,39.66z
		 M171.05,38.65c-2.659,0-4.59-2.15-4.59-4.78v-0.04c0-2.63,1.899-4.75,4.56-4.75s4.601,2.15,4.601,4.79v0.03
		C175.62,36.53,173.721,38.65,171.05,38.65z M171.02,39.859c3.551,0,5.961-2.799,5.961-5.989v-0.04c0-3.189-2.381-5.96-5.931-5.96
		c-3.54,0-5.96,2.8-5.96,6v0.03C165.09,37.1,167.48,39.859,171.02,39.859z M155.811,34.38v-5.1h2.939c1.88,0,3.13,0.86,3.13,2.51
		v0.04c0,1.52-1.26,2.55-3.19,2.55H155.811z M154.49,39.66h1.32v-4.09h2.83c2.479,0,4.569-1.29,4.569-3.79v-0.04
		c0-2.28-1.729-3.67-4.36-3.67h-4.359V39.66L154.49,39.66z M147.83,39.83c2.32,0,3.98-1.29,3.98-3.28v-0.03
		c0-1.779-1.201-2.72-3.791-3.279c-2.569-0.551-3.17-1.16-3.17-2.26v-0.03c0-1.04,0.971-1.87,2.48-1.87
		c1.199,0,2.279,0.38,3.37,1.26l0.76-1.01c-1.181-0.95-2.399-1.43-4.09-1.43c-2.22,0-3.83,1.34-3.83,3.17V31.1
		c0,1.9,1.229,2.771,3.91,3.351c2.45,0.51,3.03,1.12,3.03,2.2v0.029c0,1.141-1.03,1.971-2.601,1.971c-1.61,0-2.78-0.541-3.989-1.641
		l-0.82,0.961C144.471,39.22,145.98,39.83,147.83,39.83z M137.35,39.83c2.311,0,3.971-1.29,3.971-3.28v-0.03
		c0-1.779-1.2-2.72-3.791-3.279c-2.569-0.551-3.159-1.16-3.159-2.26v-0.03c0-1.04,0.96-1.87,2.479-1.87c1.19,0,2.28,0.38,3.36,1.26
		l0.761-1.01c-1.181-0.95-2.391-1.43-4.091-1.43c-2.21,0-3.83,1.34-3.83,3.17V31.1c0,1.9,1.229,2.771,3.91,3.351
		c2.45,0.51,3.03,1.12,3.03,2.2v0.029c0,1.141-1.03,1.971-2.6,1.971c-1.611,0-2.781-0.541-3.99-1.641l-0.82,0.961
		C133.98,39.22,135.5,39.83,137.35,39.83z M122.68,35.41l2.66-5.9l2.65,5.9H122.68z M119.43,39.66h1.35l1.381-3.061h6.35l1.36,3.061
		h1.42l-5.31-11.68h-1.24L119.43,39.66z M111.79,34.38v-5.1h2.95c1.88,0,3.13,0.86,3.13,2.51v0.04c0,1.52-1.271,2.55-3.2,2.55
		H111.79z M110.48,39.66h1.31v-4.09h2.83c2.479,0,4.58-1.29,4.58-3.79v-0.04c0-2.28-1.729-3.67-4.36-3.67h-4.359V39.66z"/>
	<rect x="98.27" y="-0.03" fill="#FFFFFF" width="1" height="52"/>
	<polygon fill="#FFFFFF" points="69.67,14.98 83.13,14.98 86.67,14.98 86.67,12.13 66.52,12.13 66.52,14.98 	"/>
	<path fill="#FFFFFF" d="M35.07,39.859h3.07V17.12l17.99,22.739h2.51V12.13h-3.06v22.229L38.02,12.13h-2.95V39.859z M14.17,40.34
		c8.48,0,14.26-6.699,14.26-14.34v-0.08c0-7.65-5.7-14.27-14.18-14.27S0,18.35,0,26v0.08C0,33.72,5.7,40.34,14.17,40.34z
		 M14.25,37.45C7.88,37.45,3.27,32.3,3.27,26v-0.08c0-6.3,4.53-11.37,10.9-11.37S25.16,19.7,25.16,26v0.08
		C25.16,32.37,20.62,37.45,14.25,37.45z M66.52,39.859h20.34v-2.85H69.67V27.3h15.2v-2.85h-1.74H69.67h-3.15V39.859z"/>
</g>
</svg>
